<svg xmlns="http://www.w3.org/2000/svg" viewBox="0 0 600 450" width="100%" height="100%">
  <rect width="100%" height="100%" fill="#E9F5ED"/>
  
  <rect x="100" y="200" width="400" height="100" rx="10" fill="#D2B48C" stroke="#8B5A2B" stroke-width="4"/>
  <line x1="120" y1="230" x2="480" y2="230" stroke="#8B5A2B" stroke-width="2"/>
  <line x1="150" y1="270" x2="450" y2="270" stroke="#8B5A2B" stroke-width="2"/>
  
  <g fill="#FFF9C4" stroke="#FBC02D" stroke-width="1">
    <ellipse cx="280" cy="215" rx="6" ry="3"/>
    <ellipse cx="288" cy="217" rx="5" ry="2.5"/>
    <ellipse cx="272" cy="216" rx="5" ry="3"/>
    <ellipse cx="279" cy="210" rx="6" ry="3"/>
    <ellipse cx="295" cy="214" rx="6" ry="3.2"/>
    
    <ellipse cx="200" cy="215" rx="6" ry="3"/>
    <ellipse cx="208" cy="217" rx="5" ry="2.5"/>
    <ellipse cx="192" cy="216" rx="5" ry="3"/>
  </g>
  
  <g transform="translate(320, 80) scale(0.8)">
    <ellipse cx="100" cy="80" rx="35" ry="18" fill="#1B4332"/>
    <circle cx="55" cy="80" r="15" fill="#0D2619"/>
    <circle cx="50" cy="72" r="6" fill="#A21E1E"/>
    <circle cx="50" cy="88" r="6" fill="#A21E1E"/>
    <ellipse cx="110" cy="50" rx="50" ry="15" fill="rgba(255, 255, 255, 0.7)" stroke="#1B4332" transform="rotate(-25, 110, 50)"/>
    <ellipse cx="110" cy="110" rx="50" ry="15" fill="rgba(255, 255, 255, 0.7)" stroke="#1B4332" transform="rotate(25, 110, 110)"/>
  </g>
  
  <text x="300" y="380" font-family="'Outfit', sans-serif" font-weight="800" font-size="24" fill="#1B4332" text-anchor="middle">EKSTRAKSI TELUR BSF</text>
</svg>