<svg xmlns="http://www.w3.org/2000/svg" viewBox="0 0 600 450" width="100%" height="100%">
  <rect width="100%" height="100%" fill="#F8F9FA"/>
  <rect x="50" y="100" width="500" height="280" rx="15" fill="#D8F3DC" stroke="#40916C" stroke-width="4"/>
  <line x1="50" y1="200" x2="550" y2="200" stroke="#2D6A4F" stroke-width="4"/>
  <line x1="50" y1="290" x2="550" y2="290" stroke="#2D6A4F" stroke-width="4"/>
  
  <g fill="#1B4332">
    <rect x="80" y="140" width="100" height="50" rx="5" fill="#52B788"/>
    <rect x="250" y="140" width="100" height="50" rx="5" fill="#52B788"/>
    <rect x="420" y="140" width="100" height="50" rx="5" fill="#52B788"/>
    
    <rect x="80" y="230" width="100" height="50" rx="5" fill="#40916C"/>
    <rect x="250" y="230" width="100" height="50" rx="5" fill="#40916C"/>
    <rect x="420" y="230" width="100" height="50" rx="5" fill="#40916C"/>
    
    <rect x="80" y="320" width="100" height="50" rx="5" fill="#2D6A4F"/>
    <rect x="250" y="320" width="100" height="50" rx="5" fill="#2D6A4F"/>
    <rect x="420" y="320" width="100" height="50" rx="5" fill="#2D6A4F"/>
  </g>
  <text x="300" y="60" font-family="'Outfit', sans-serif" font-weight="800" font-size="26" fill="#1B4332" text-anchor="middle">FASILITAS BIOPON RUMAH HIJAU</text>
</svg>